<svg width="68" height="57" viewBox="0 0 68 57" fill="none" xmlns="http://www.w3.org/2000/svg">
<path d="M49.0391 0.226562C42.7227 0.226562 37.2304 3.07496 34 7.84836C30.7696 3.07496 25.2773 0.226562 18.9609 0.226562C14.1763 0.232135 9.58926 2.13529 6.20602 5.51852C2.82279 8.90176 0.919635 13.4888 0.914062 18.2734C0.914063 27.0562 6.38828 36.197 17.1863 45.437C22.1343 49.6532 27.4791 53.3803 33.1458 56.5659C33.4084 56.707 33.7019 56.7809 34 56.7809C34.2981 56.7809 34.5916 56.707 34.8542 56.5659C40.5209 53.3803 45.8657 49.6532 50.8137 45.437C61.6117 36.197 67.0859 27.0562 67.0859 18.2734C67.0804 13.4888 65.1772 8.90176 61.794 5.51852C58.4107 2.13529 53.8237 0.232135 49.0391 0.226562ZM34 52.8964C29.0642 50.048 4.52344 35.033 4.52344 18.2734C4.52742 14.4456 6.04979 10.7757 8.75648 8.06898C11.4632 5.36229 15.1331 3.83992 18.9609 3.83594C25.0608 3.83594 30.1831 7.0934 32.3307 12.339C32.4666 12.67 32.6979 12.9531 32.9952 13.1524C33.2924 13.3516 33.6422 13.458 34 13.458C34.3578 13.458 34.7076 13.3516 35.0048 13.1524C35.3021 12.9531 35.5334 12.67 35.6693 12.339C37.8169 7.0934 42.9392 3.83594 49.0391 3.83594C52.8669 3.83992 56.5368 5.36229 59.2435 8.06898C61.9502 10.7757 63.4726 14.4456 63.4766 18.2734C63.4766 35.033 38.9358 50.048 34 52.8964Z" fill="#006B63"/>
</svg>
