<svg width="37" height="37" viewBox="0 0 37 37" fill="none" xmlns="http://www.w3.org/2000/svg">
<path d="M1.21981 9.76003C2.84253 16.0912 6.13702 21.8699 10.7586 26.4914C15.3801 31.113 21.1588 34.4075 27.49 36.0302C32.3613 37.2702 36.5 33.0814 36.5 28.0531V25.7779C36.5 24.5219 35.4784 23.514 34.2293 23.3888C32.1576 23.1846 30.1241 22.6954 28.1862 21.9349L24.7278 25.3933C19.0967 22.6941 14.5559 18.1533 11.8567 12.5222L15.3151 9.0638C14.5538 7.12606 14.0638 5.09249 13.8589 3.02071C13.736 1.76932 12.7281 0.75 11.4721 0.75H9.19688C4.16855 0.75 -0.0202026 4.8887 1.21981 9.76003Z" fill="#006B63" stroke="#006B63" stroke-width="0.8" stroke-linecap="round" stroke-linejoin="round"/>
</svg>
