<svg width="11" height="9" viewBox="0 0 11 9" fill="none" xmlns="http://www.w3.org/2000/svg">
<path d="M1.02503 8.07737L1.00339 4.8979L3.43325 3.315L3.44307 4.75878M3.44879 5.5988L3.46386 7.81259L2.23903 7.82092L2.22361 5.55463L4.65346 3.97174L4.62886 0.357925L7.76737 2.16543L7.77767 3.67921M7.77767 3.67921L10.3061 4.48455L10.3284 7.76586L7.80561 7.78303L7.78327 4.50172M7.77767 3.67921L6.23849 3.16465L6.27169 8.04166M4.65977 4.89835L4.68124 8.05248" stroke="#DEB028" stroke-width="0.286316"/>
<path d="M1.02503 8.07737L1.00339 4.8979L3.43325 3.315L3.44307 4.75878M3.44879 5.5988L3.46386 7.81259L2.23903 7.82092L2.22361 5.55463L4.65346 3.97174L4.62886 0.357925L7.76737 2.16543L7.77767 3.67921M7.77767 3.67921L10.3061 4.48455L10.3284 7.76586L7.80561 7.78303L7.78327 4.50172M7.77767 3.67921L6.23849 3.16465L6.27169 8.04166M4.65977 4.89835L4.68124 8.05248" stroke="url(#paint0_linear_1_528)" stroke-opacity="0.9" stroke-width="0.286316"/>
<defs>
<linearGradient id="paint0_linear_1_528" x1="8.68258" y1="5.45852" x2="5.08487" y2="4.16084" gradientUnits="userSpaceOnUse">
<stop stop-color="#636467"/>
<stop offset="1" stop-color="#636467" stop-opacity="0"/>
</linearGradient>
</defs>
</svg>
