<svg width="22" height="22" viewBox="0 0 22 22" fill="none" xmlns="http://www.w3.org/2000/svg">
<path d="M12.1315 17.4309C12.0996 17.399 12.0742 17.3611 12.0569 17.3193C12.0396 17.2776 12.0307 17.2329 12.0307 17.1877C12.0307 17.1425 12.0396 17.0978 12.0569 17.0561C12.0742 17.0143 12.0996 16.9764 12.1315 16.9445L17.7321 11.3439L3.43723 11.3439C3.34606 11.3439 3.25863 11.3077 3.19416 11.2433C3.1297 11.1788 3.09348 11.0914 3.09348 11.0002C3.09348 10.909 3.1297 10.8216 3.19416 10.7571C3.25863 10.6927 3.34606 10.6564 3.43723 10.6564L17.7321 10.6564L12.1315 5.05589C12.0996 5.02396 12.0743 4.98604 12.057 4.94431C12.0397 4.90258 12.0308 4.85786 12.0308 4.81269C12.0308 4.76752 12.0397 4.7228 12.057 4.68107C12.0743 4.63934 12.0996 4.60143 12.1315 4.56949C12.1635 4.53755 12.2014 4.51222 12.2431 4.49493C12.2848 4.47765 12.3296 4.46875 12.3747 4.46875C12.4199 4.46875 12.4646 4.47765 12.5064 4.49493C12.5481 4.51222 12.586 4.53755 12.6179 4.56949L18.8054 10.757C18.8374 10.7889 18.8627 10.8268 18.88 10.8686C18.8973 10.9103 18.9062 10.955 18.9062 11.0002C18.9062 11.0454 18.8973 11.0901 18.88 11.1318C18.8627 11.1736 18.8374 11.2115 18.8054 11.2434L12.6179 17.4309C12.586 17.4629 12.5481 17.4882 12.5064 17.5055C12.4646 17.5228 12.4199 17.5317 12.3747 17.5317C12.3296 17.5317 12.2848 17.5228 12.2431 17.5055C12.2014 17.4882 12.1635 17.4629 12.1315 17.4309Z" fill="#006B63"/>
</svg>
