<svg width="231" height="225" viewBox="0 0 231 225" fill="none" xmlns="http://www.w3.org/2000/svg">
<path d="M114.24 204.135C113.835 204.135 113.403 204.092 112.944 204.007C112.475 203.922 112.096 203.81 111.808 203.671C111.734 203.639 111.686 203.607 111.664 203.575C111.643 203.543 111.627 203.484 111.616 203.399L111.456 201.751C111.456 201.719 111.488 201.698 111.552 201.687C111.606 201.676 111.638 201.692 111.648 201.735C111.84 202.471 112.192 203.015 112.704 203.367C113.206 203.719 113.83 203.895 114.576 203.895C115.131 203.895 115.632 203.746 116.08 203.447C116.518 203.148 116.864 202.738 117.12 202.215C117.366 201.703 117.488 201.122 117.488 200.471C117.488 199.81 117.366 199.17 117.12 198.551C116.864 197.943 116.486 197.447 115.984 197.063C115.472 196.679 114.859 196.487 114.144 196.487C112.8 196.487 111.92 197.223 111.504 198.695C111.504 198.727 111.478 198.743 111.424 198.743C111.403 198.743 111.382 198.732 111.36 198.711C111.328 198.7 111.312 198.69 111.312 198.679L111.52 196.983C111.531 196.898 111.547 196.839 111.568 196.807C111.59 196.775 111.648 196.738 111.744 196.695C112.566 196.407 113.419 196.263 114.304 196.263C115.318 196.263 116.15 196.466 116.8 196.871C117.451 197.276 117.92 197.783 118.208 198.391C118.496 198.999 118.64 199.612 118.64 200.231C118.64 200.956 118.448 201.618 118.064 202.215C117.68 202.812 117.152 203.282 116.48 203.623C115.808 203.964 115.062 204.135 114.24 204.135Z" fill="#F7F7F7"/>
<path d="M99.0624 193.805C99.0201 193.799 99.0035 193.765 99.0124 193.701C99.0214 193.638 99.047 193.609 99.0893 193.615C99.2796 193.64 99.5847 193.692 100.005 193.77C100.425 193.847 100.73 193.899 100.92 193.924C101.089 193.947 101.313 193.966 101.59 193.982C101.868 193.997 102.081 194.015 102.229 194.035C102.272 194.041 102.288 194.075 102.279 194.139C102.27 194.202 102.245 194.231 102.202 194.225C101.928 194.188 101.722 194.193 101.586 194.24C101.439 194.295 101.352 194.413 101.327 194.592C101.304 194.751 101.336 194.981 101.423 195.283L102.175 197.74L104.395 198.038L105.316 196.434C105.542 196.055 105.674 195.734 105.711 195.469C105.75 195.195 105.682 194.987 105.508 194.845C105.334 194.703 105.052 194.606 104.661 194.554C104.608 194.547 104.586 194.512 104.595 194.448C104.604 194.385 104.635 194.357 104.687 194.364C104.846 194.385 105.061 194.425 105.333 194.483C105.626 194.543 105.9 194.591 106.153 194.625C106.418 194.66 106.731 194.691 107.093 194.718C107.414 194.74 107.669 194.763 107.859 194.788C107.912 194.796 107.934 194.831 107.925 194.894C107.916 194.957 107.885 194.986 107.832 194.979C107.505 194.935 107.24 194.942 107.037 195.001C106.834 195.071 106.634 195.227 106.438 195.47C106.231 195.711 105.972 196.096 105.661 196.625L102.592 201.88C102.565 201.92 102.53 201.937 102.488 201.931C102.446 201.925 102.422 201.901 102.418 201.857L100.638 196.034C100.447 195.405 100.291 194.949 100.169 194.663C100.037 194.377 99.8943 194.169 99.7401 194.041C99.5738 193.922 99.3479 193.843 99.0624 193.805ZM104.244 198.308L102.261 198.043L103.002 200.466L104.244 198.308Z" fill="#F7F7F7"/>
<path d="M92.0942 198.292C92.1827 197.984 92.1837 197.691 92.0972 197.413C91.9974 197.143 91.8513 196.899 91.6589 196.68C91.4665 196.462 91.2042 196.197 90.8722 195.885C90.5152 195.545 90.2331 195.252 90.026 195.008C89.8159 194.773 89.6603 194.504 89.5591 194.2C89.4579 193.896 89.4589 193.565 89.5621 193.206C89.6713 192.827 89.8796 192.508 90.1872 192.249C90.4815 191.998 90.8507 191.833 91.2948 191.755C91.739 191.677 92.2235 191.71 92.7483 191.853C93.4995 192.058 94.0704 192.407 94.4612 192.901C94.5067 192.936 94.5339 192.976 94.5427 193.023C94.5411 193.067 94.5323 193.136 94.516 193.231L94.2323 194.795C94.2308 194.839 94.2029 194.859 94.1485 194.855C94.0838 194.849 94.047 194.822 94.0382 194.776C94.0653 194.142 93.9283 193.557 93.6273 193.022C93.3131 192.494 92.8936 192.158 92.3688 192.015C92.0086 191.917 91.6704 191.935 91.3541 192.07C91.0246 192.212 90.7964 192.504 90.6696 192.945C90.5339 193.416 90.5777 193.843 90.8008 194.224C91.024 194.606 91.3846 195.03 91.8827 195.498C92.2294 195.835 92.5027 196.12 92.7025 196.351C92.889 196.59 93.0292 196.855 93.1231 197.146C93.2169 197.437 93.2137 197.757 93.1134 198.105C92.9453 198.69 92.5876 199.084 92.0404 199.288C91.4933 199.493 90.8955 199.507 90.2472 199.33C89.7018 199.181 89.2212 198.923 88.8054 198.555C88.7275 198.479 88.6827 198.422 88.671 198.386C88.646 198.357 88.6387 198.305 88.6491 198.231L88.9259 196.863C88.9377 196.822 88.976 196.805 89.0407 196.812C89.0951 196.816 89.1215 196.839 89.12 196.883C89.0977 197.153 89.1409 197.447 89.2494 197.764C89.3447 198.089 89.5099 198.383 89.7449 198.646C89.9697 198.906 90.2518 199.082 90.5914 199.175C90.9619 199.276 91.2825 199.242 91.5532 199.073C91.8136 198.9 91.9939 198.64 92.0942 198.292Z" fill="#F7F7F7"/>
<path d="M77.0497 186.559C77.0104 186.542 77.0038 186.504 77.0298 186.446C77.0559 186.388 77.0886 186.367 77.1279 186.383C77.3047 186.458 77.5853 186.588 77.9695 186.774C78.3538 186.96 78.6344 187.09 78.8112 187.165C78.9684 187.231 79.1791 187.309 79.4432 187.397C79.7073 187.486 79.9081 187.559 80.0457 187.617C80.085 187.634 80.0916 187.671 80.0655 187.73C80.0394 187.788 80.0067 187.809 79.9674 187.793C79.712 187.685 79.5123 187.635 79.3684 187.643C79.2102 187.658 79.0942 187.748 79.0203 187.913C78.9552 188.059 78.9228 188.289 78.9234 188.602L78.9738 191.159L81.0368 192.031L82.368 190.736C82.6903 190.432 82.9058 190.159 83.0144 189.915C83.1274 189.662 83.1194 189.444 82.9904 189.262C82.8613 189.08 82.6151 188.912 82.2516 188.759C82.2024 188.738 82.1909 188.698 82.217 188.64C82.2431 188.581 82.2807 188.563 82.3298 188.583C82.4771 188.646 82.6742 188.741 82.9209 188.868C83.1873 189.004 83.4384 189.122 83.6742 189.221C83.9198 189.325 84.2139 189.438 84.5567 189.56C84.8601 189.665 85.1002 189.755 85.277 189.83C85.3262 189.851 85.3377 189.89 85.3116 189.949C85.2855 190.007 85.2479 190.026 85.1988 190.005C84.8943 189.876 84.6362 189.813 84.4246 189.817C84.2086 189.829 83.9727 189.927 83.7167 190.108C83.4508 190.285 83.0947 190.586 82.6482 191.011L78.2382 195.242C78.2012 195.273 78.1631 195.28 78.1238 195.263C78.0845 195.246 78.0686 195.217 78.0761 195.173L77.959 189.114C77.9469 188.461 77.9215 187.981 77.8828 187.675C77.8343 187.365 77.7531 187.128 77.6394 186.964C77.5115 186.806 77.3149 186.671 77.0497 186.559ZM80.8164 192.251L78.9743 191.472L79.023 193.993L80.8164 192.251Z" fill="#F7F7F7"/>
<path d="M60.5156 177.406C60.7276 177.152 60.8606 176.951 60.9145 176.803C60.9601 176.649 60.9373 176.502 60.8461 176.361C60.7548 176.221 60.5671 176.038 60.2828 175.813C60.2661 175.8 60.2783 175.769 60.3193 175.72C60.3603 175.671 60.3892 175.653 60.4059 175.666C60.64 175.851 60.8206 176.001 60.9475 176.115L61.7274 176.754L62.4776 177.327C62.6266 177.432 62.8223 177.58 63.0648 177.772C63.0815 177.785 63.0694 177.817 63.0283 177.866C62.9873 177.915 62.9584 177.933 62.9417 177.919C62.6574 177.694 62.4355 177.552 62.2758 177.494C62.1162 177.436 61.9676 177.447 61.8301 177.529C61.6842 177.604 61.5052 177.768 61.2932 178.022L58.1539 181.779C57.9487 182.024 57.8233 182.224 57.7778 182.379C57.7238 182.526 57.7466 182.674 57.8462 182.82C57.9306 182.969 58.1108 183.152 58.3867 183.371C58.4034 183.384 58.3912 183.415 58.3502 183.465C58.3092 183.514 58.2803 183.532 58.2636 183.518L57.6969 183.049C57.4096 182.794 57.1698 182.591 56.9774 182.438C56.7601 182.266 56.4857 182.062 56.1543 181.827L55.6047 181.412C55.588 181.399 55.6001 181.368 55.6412 181.319C55.6822 181.269 55.7111 181.252 55.7278 181.265C55.9954 181.477 56.2166 181.611 56.3914 181.668C56.5662 181.725 56.73 181.712 56.8827 181.629C57.0203 181.547 57.1917 181.384 57.3968 181.138L60.5156 177.406Z" fill="#F7F7F7"/>
<path d="M49.206 165.224C49.1913 165.208 49.2076 165.179 49.2549 165.136C49.3023 165.093 49.3333 165.079 49.3481 165.094C49.5548 165.31 49.7133 165.483 49.8236 165.613L50.4652 166.305L51.2302 167.08C51.3636 167.203 51.5411 167.381 51.7626 167.612C51.7773 167.627 51.761 167.656 51.7137 167.699C51.6663 167.742 51.6353 167.756 51.6205 167.741C51.3473 167.456 51.1245 167.262 50.9522 167.16C50.7719 167.064 50.6044 167.044 50.4496 167.098C50.2948 167.152 50.1064 167.295 49.8845 167.525L46.0281 171.291L52.7983 168.853C52.8447 168.84 52.8863 168.853 52.9232 168.891C52.9675 168.937 52.9813 168.982 52.9645 169.027L50.6053 175.301L50.5801 175.367L53.9943 172.457C54.42 172.084 54.6642 171.761 54.7271 171.488C54.7899 171.215 54.6885 170.939 54.4226 170.662C54.4005 170.639 54.4131 170.606 54.4604 170.563C54.5078 170.52 54.5425 170.51 54.5647 170.533C54.7198 170.695 54.8339 170.822 54.9073 170.913L55.3828 171.432L55.8598 171.906C55.9637 171.999 56.1005 172.134 56.2703 172.311C56.2851 172.327 56.2688 172.356 56.2215 172.399C56.1741 172.442 56.1431 172.456 56.1283 172.44C55.8551 172.156 55.5763 172.034 55.2919 172.077C55.0076 172.119 54.6489 172.323 54.2158 172.688L50.4354 175.909C50.3576 176.398 50.4737 176.804 50.7838 177.128C50.806 177.151 50.7934 177.184 50.746 177.227C50.6987 177.27 50.6639 177.28 50.6418 177.257L50.0445 176.611L49.501 176.067C49.405 175.967 49.363 175.854 49.3749 175.728C49.3869 175.602 49.4643 175.351 49.6071 174.976L51.6497 169.574L45.8319 171.664C45.7155 171.713 45.6002 171.731 45.4859 171.72C45.3642 171.701 45.2701 171.656 45.2037 171.587L44.6285 170.964L43.8746 170.202C43.8598 170.186 43.8761 170.157 43.9235 170.114C43.9708 170.071 44.0019 170.057 44.0166 170.072C44.3489 170.419 44.6367 170.611 44.8801 170.649C45.1156 170.694 45.3838 170.566 45.6847 170.263L49.1978 166.809C49.4276 166.571 49.5794 166.383 49.6529 166.244C49.7265 166.105 49.7313 165.964 49.6674 165.82C49.5961 165.669 49.4423 165.47 49.206 165.224Z" fill="#F7F7F7"/>
<path d="M44.9053 161.513C45.1866 161.32 45.3713 161.148 45.4593 160.997C45.5385 160.852 45.5419 160.675 45.4695 160.466C45.3907 160.248 45.2136 159.949 44.9381 159.569C44.9194 159.543 44.9363 159.512 44.9891 159.476C45.0418 159.44 45.0776 159.435 45.0964 159.46C45.3218 159.771 45.4895 160.012 45.5997 160.182L46.2815 161.15L46.8487 161.905C46.9639 162.046 47.1123 162.241 47.2939 162.492C47.3064 162.509 47.2863 162.536 47.2336 162.572C47.1808 162.608 47.1482 162.618 47.1357 162.6C46.9291 162.315 46.7568 162.123 46.619 162.024C46.4811 161.925 46.335 161.896 46.1806 161.937C46.0112 161.976 45.7946 162.086 45.5309 162.267L41.496 165.04C41.2323 165.222 41.0577 165.38 40.9722 165.517C40.8804 165.645 40.8626 165.793 40.9189 165.961C40.96 166.127 41.0808 166.348 41.2811 166.624C41.2936 166.642 41.2735 166.668 41.2208 166.705C41.168 166.741 41.1354 166.75 41.1229 166.733L40.7135 166.141C40.4931 165.801 40.3172 165.54 40.1858 165.359C40.0793 165.212 39.9748 165.077 39.8721 164.953C39.7631 164.821 39.6698 164.71 39.5921 164.622C39.3717 164.372 39.1769 164.131 39.0079 163.897C37.9749 162.472 37.9946 161.391 39.067 160.654C39.489 160.364 39.9233 160.228 40.3699 160.244C40.8014 160.258 41.2065 160.381 41.585 160.612C41.9573 160.835 42.2687 161.119 42.5191 161.465C42.6882 161.698 42.8083 161.9 42.8796 162.071C42.8921 162.088 42.8764 162.112 42.8325 162.142C42.7621 162.19 42.7113 162.193 42.68 162.15C42.6125 162.002 42.5286 161.859 42.4284 161.721C42.153 161.341 41.7983 161.106 41.3643 161.016C40.9153 160.924 40.4534 161.041 39.9787 161.367C39.4249 161.748 39.1107 162.177 39.036 162.655C38.9462 163.131 39.0735 163.606 39.4179 164.081C39.5744 164.297 39.7109 164.449 39.8275 164.537C39.9378 164.617 40.0776 164.637 40.2471 164.598C40.4165 164.56 40.6506 164.437 40.9495 164.232L44.9053 161.513Z" fill="#F7F7F7"/>
<path d="M37.224 148.638C37.1954 148.652 37.1686 148.636 37.1436 148.589C37.1135 148.532 37.1128 148.497 37.1413 148.482C37.8621 148.202 38.4415 147.952 38.8796 147.731C38.9557 147.692 39.0204 147.678 39.0735 147.687C39.1171 147.701 39.1615 147.75 39.2066 147.835L41.9576 153.004C41.9677 153.023 41.9441 153.047 41.887 153.076C41.8298 153.104 41.7963 153.109 41.7862 153.091C41.6209 152.78 41.4768 152.566 41.354 152.449C41.2312 152.331 41.0906 152.283 40.9323 152.303C40.7593 152.319 40.53 152.399 40.2443 152.543L35.8732 154.748C35.5875 154.892 35.393 155.026 35.2897 155.15C35.1814 155.264 35.1411 155.404 35.1686 155.569C35.1867 155.739 35.2784 155.98 35.4437 156.291C35.4537 156.309 35.4302 156.333 35.373 156.362C35.3159 156.391 35.2823 156.396 35.2723 156.377L32.6565 151.462C32.6064 151.368 32.6195 151.301 32.6957 151.263L33.5738 150.802C33.7497 150.701 33.9758 150.581 34.252 150.442C34.2805 150.427 34.3098 150.448 34.3399 150.505C34.37 150.561 34.3707 150.597 34.3422 150.611C33.9241 150.87 33.6522 151.21 33.5264 151.632C33.386 152.049 33.4235 152.46 33.639 152.865L33.8495 153.261C34.0248 153.59 34.1812 153.816 34.3185 153.938C34.4463 154.064 34.5919 154.122 34.7553 154.112C34.9187 154.101 35.1432 154.023 35.4289 153.879L37.386 152.892C36.8904 151.983 36.5358 151.374 36.3224 151.063C36.0943 150.748 35.9678 150.567 35.9427 150.52C35.9177 150.473 36.0052 150.399 36.2051 150.298C36.4242 150.188 36.5462 150.156 36.5713 150.203C36.5913 150.241 36.6677 150.441 36.8005 150.804C36.9238 151.172 37.2189 151.818 37.6859 152.741L39.7287 151.71C40.0049 151.571 40.1993 151.437 40.3121 151.308C40.4154 151.184 40.4555 151.033 40.4325 150.853C40.3949 150.669 40.2909 150.417 40.1205 150.097L39.7597 149.419C39.5593 149.042 39.2265 148.78 38.7614 148.632C38.2868 148.49 37.7743 148.491 37.224 148.638Z" fill="#F7F7F7"/>
<path d="M34.1118 135.856C34.1045 135.836 34.1311 135.815 34.1916 135.794C34.2521 135.773 34.286 135.773 34.2933 135.793L34.9352 137.551C35.001 137.732 34.8156 138.157 34.379 138.827C33.9388 139.487 33.3015 140.323 32.4671 141.334C32.5769 141.511 32.6757 141.719 32.7634 141.959C32.8549 142.21 32.9143 142.404 32.9417 142.541L35.1039 141.793C35.4164 141.685 35.634 141.581 35.7569 141.482C35.8797 141.383 35.9389 141.25 35.9344 141.082C35.93 140.915 35.8656 140.66 35.7412 140.32C35.7339 140.3 35.7605 140.279 35.821 140.258C35.8814 140.237 35.9153 140.237 35.9226 140.257C36.0251 140.537 36.0986 140.755 36.1434 140.908L36.4739 141.86L36.8127 142.742C36.885 142.909 36.9741 143.138 37.0802 143.428C37.0875 143.448 37.0609 143.469 37.0005 143.49C36.94 143.511 36.9061 143.511 36.8988 143.491C36.7781 143.16 36.6651 142.929 36.5598 142.796C36.4509 142.653 36.3149 142.576 36.1519 142.564C35.9787 142.557 35.7409 142.605 35.4385 142.71L30.8117 144.311C30.5093 144.415 30.2985 144.522 30.1793 144.631C30.0565 144.73 29.9991 144.868 30.0073 145.046C30.0016 145.217 30.0592 145.468 30.1799 145.799C30.1872 145.819 30.1606 145.84 30.1001 145.861C30.0396 145.881 30.0057 145.882 29.9984 145.862L29.7612 145.165C29.6497 144.798 29.5537 144.503 29.4732 144.283C29.4074 144.103 29.342 143.939 29.2771 143.792C29.2085 143.635 29.149 143.504 29.0987 143.397C28.9551 143.097 28.8321 142.806 28.7297 142.526C28.4919 141.875 28.4369 141.335 28.5646 140.907C28.6922 140.479 28.9929 140.183 29.4667 140.019C29.8699 139.88 30.2849 139.866 30.7118 139.978C31.1386 140.09 31.5292 140.304 31.8835 140.622C32.6061 139.74 33.1499 139.021 33.5149 138.466C33.8662 137.904 34.0892 137.427 34.1838 137.033C34.2748 136.629 34.2508 136.236 34.1118 135.856ZM32.6695 142.635C32.6339 142.444 32.5667 142.214 32.468 141.943C32.2412 141.322 31.9479 140.938 31.5879 140.792C31.2143 140.639 30.7603 140.655 30.226 140.84C29.1172 141.224 28.7365 141.891 29.084 142.843C29.223 143.224 29.3951 143.447 29.6002 143.511C29.8017 143.566 30.1041 143.523 30.5073 143.383L32.6695 142.635Z" fill="#F7F7F7"/>
<path d="M31.2632 128.899C31.5873 128.833 31.817 128.76 31.9522 128.678C32.0853 128.586 32.1612 128.456 32.1801 128.289C32.199 128.122 32.1706 127.861 32.0949 127.506C32.0904 127.486 32.1195 127.469 32.1823 127.456C32.245 127.443 32.2786 127.447 32.283 127.468C32.3454 127.76 32.3891 127.991 32.4143 128.16L32.609 129.149L32.8217 130.069C32.87 130.244 32.9265 130.483 32.991 130.786C32.9955 130.806 32.9663 130.823 32.9036 130.836C32.8409 130.849 32.8073 130.845 32.8028 130.824C32.7271 130.469 32.6465 130.219 32.5608 130.073C32.4751 129.927 32.3535 129.843 32.196 129.82C32.0363 129.787 31.7944 129.803 31.4703 129.869L26.6715 130.84C26.3579 130.903 26.1346 130.981 26.0016 131.073C25.8663 131.155 25.7904 131.285 25.7737 131.462C25.7444 131.632 25.7665 131.888 25.8399 132.232C25.8444 132.253 25.8152 132.27 25.7525 132.283C25.6898 132.296 25.6562 132.291 25.6517 132.271L25.5138 131.548C25.4546 131.168 25.3993 130.858 25.3481 130.618C25.2903 130.347 25.2086 130.015 25.103 129.623L24.9438 128.953C24.9393 128.932 24.9685 128.916 25.0312 128.903C25.0939 128.89 25.1275 128.894 25.132 128.915C25.2032 129.249 25.288 129.493 25.3863 129.647C25.4847 129.801 25.619 129.894 25.7891 129.925C25.9466 129.947 26.1822 129.927 26.4959 129.863L31.2632 128.899Z" fill="#F7F7F7"/>
<path d="M30.5032 113.129C30.5002 113.086 30.5307 113.063 30.5945 113.058C30.6584 113.054 30.6918 113.073 30.6948 113.116C30.7083 113.307 30.7193 113.617 30.7279 114.044C30.7365 114.471 30.7476 114.78 30.761 114.972C30.773 115.142 30.7993 115.365 30.84 115.64C30.8808 115.915 30.9063 116.127 30.9168 116.276C30.9198 116.319 30.8894 116.342 30.8255 116.346C30.7616 116.351 30.7282 116.331 30.7252 116.289C30.7058 116.012 30.6597 115.812 30.5868 115.689C30.5026 115.555 30.37 115.495 30.1891 115.507C30.0295 115.517 29.8104 115.596 29.5321 115.743L27.2775 116.984L27.4344 119.218L29.1909 119.791C29.6073 119.934 29.9485 119.997 30.2146 119.979C30.4913 119.961 30.6815 119.852 30.7851 119.652C30.8887 119.453 30.9267 119.157 30.899 118.763C30.8953 118.71 30.9254 118.681 30.9892 118.677C31.0531 118.672 31.0869 118.697 31.0906 118.75C31.1018 118.91 31.1065 119.129 31.1046 119.407C31.1043 119.706 31.1131 119.983 31.131 120.239C31.1497 120.505 31.1824 120.818 31.2291 121.178C31.2728 121.496 31.3014 121.751 31.3149 121.942C31.3186 121.995 31.2885 122.024 31.2247 122.028C31.1608 122.033 31.127 122.008 31.1233 121.955C31.1001 121.625 31.0392 121.367 30.9406 121.181C30.8314 120.996 30.6381 120.833 30.3608 120.691C30.0828 120.538 29.6535 120.364 29.073 120.167L23.3079 118.242C23.2639 118.224 23.2403 118.193 23.2373 118.151C23.2343 118.108 23.2538 118.08 23.2956 118.067L28.6388 115.129C29.2154 114.813 29.6311 114.566 29.886 114.389C30.1401 114.201 30.3144 114.018 30.4089 113.841C30.492 113.653 30.5234 113.416 30.5032 113.129ZM27.1392 119.125L26.9991 117.13L24.7753 118.353L27.1392 119.125Z" fill="#F7F7F7"/>
<path d="M29.6141 107.632C29.9228 107.652 30.1535 107.641 30.3062 107.598C30.4597 107.544 30.574 107.439 30.6491 107.284C30.7249 107.118 30.7744 106.87 30.7976 106.54L30.8716 105.487C30.9112 104.923 30.767 104.464 30.4389 104.111C30.1116 103.747 29.6434 103.486 29.0343 103.328C29.0131 103.326 29.0039 103.304 29.0069 103.262C29.0091 103.23 29.0163 103.204 29.0285 103.183C29.0414 103.152 29.0584 103.137 29.0797 103.138C29.5641 103.245 30.216 103.326 31.0355 103.381C31.1207 103.386 31.183 103.412 31.2226 103.457C31.2523 103.491 31.2642 103.551 31.2582 103.636L30.8198 109.877C30.8183 109.898 30.7856 109.907 30.7217 109.902C30.6579 109.898 30.6267 109.885 30.6282 109.864C30.6529 109.513 30.6442 109.256 30.6022 109.093C30.5602 108.929 30.4666 108.816 30.3213 108.753C30.1654 108.689 29.9278 108.647 29.6085 108.626L24.7233 108.3C24.404 108.279 24.1676 108.295 24.0141 108.349C23.8614 108.392 23.7528 108.492 23.6884 108.648C23.6133 108.804 23.5638 109.051 23.5399 109.392C23.5384 109.413 23.5057 109.422 23.4419 109.417C23.378 109.413 23.3468 109.4 23.3483 109.379L23.4147 108.662C23.4644 108.259 23.4971 107.946 23.5128 107.722C23.5315 107.456 23.5444 107.121 23.5515 106.715L23.5827 106.043C23.5849 106.011 23.618 105.998 23.6818 106.002C23.7457 106.006 23.7765 106.024 23.7742 106.056C23.7496 106.407 23.7636 106.665 23.8162 106.829C23.8582 106.992 23.9568 107.111 24.112 107.185C24.2572 107.248 24.4895 107.29 24.8088 107.312L29.6141 107.632Z" fill="#F7F7F7"/>
<path d="M31.157 92.3609C31.1257 92.3546 31.1156 92.3253 31.1267 92.2732C31.1401 92.2106 31.1624 92.1825 31.1938 92.1888C31.9309 92.4141 32.54 92.5755 33.0209 92.6728C33.1045 92.6897 33.1639 92.718 33.1991 92.7578C33.2238 92.7954 33.2261 92.8612 33.206 92.9551L31.9838 98.6821C31.9793 98.703 31.9457 98.707 31.883 98.6944C31.8203 98.6817 31.7911 98.6649 31.7956 98.644C31.8691 98.2998 31.8964 98.0441 31.8775 97.8771C31.8586 97.71 31.7815 97.5856 31.6463 97.5038C31.5028 97.4095 31.2743 97.3306 30.9606 97.2672L26.1619 96.2962C25.8482 96.2328 25.6116 96.2175 25.4518 96.2505C25.2943 96.273 25.1728 96.3573 25.0871 96.5032C24.991 96.6469 24.9062 96.891 24.8327 97.2352C24.8282 97.2561 24.7946 97.2602 24.7319 97.2475C24.6692 97.2348 24.6401 97.218 24.6445 97.1971L25.8067 91.7518C25.8289 91.6474 25.8819 91.6037 25.9655 91.6207L26.9411 91.8017C27.142 91.8315 27.394 91.8771 27.6972 91.9384C27.7286 91.9447 27.7376 91.9792 27.7242 92.0418C27.7109 92.1044 27.6885 92.1325 27.6572 92.1262C27.1673 92.0706 26.7374 92.1686 26.3674 92.4202C25.9892 92.6593 25.7523 93.0031 25.6565 93.4517L25.563 93.8898C25.4851 94.2549 25.4597 94.5273 25.4868 94.7069C25.5035 94.8843 25.5783 95.0192 25.7113 95.1114C25.8443 95.2036 26.0676 95.2814 26.3813 95.3449L28.5297 95.7796C28.7352 94.7656 28.856 94.0718 28.8921 93.6982C28.92 93.3121 28.9395 93.093 28.9507 93.0408C28.9618 92.9887 29.0771 92.9848 29.2967 93.0292C29.5371 93.0779 29.6518 93.1283 29.6407 93.1804C29.6318 93.2222 29.5611 93.4255 29.4287 93.7905C29.2858 94.1533 29.0959 94.8386 28.8591 95.8462L31.1016 96.3C31.4048 96.3613 31.6415 96.3766 31.8117 96.3457C31.9714 96.3127 32.1004 96.2191 32.1988 96.0649C32.2889 95.8981 32.3718 95.6374 32.4475 95.2827L32.6078 94.5317C32.6969 94.1144 32.6097 93.705 32.3464 93.3035C32.0727 92.8999 31.6762 92.5857 31.157 92.3609Z" fill="#F7F7F7"/>
<path d="M34.1539 70.0513C34.3444 69.6935 34.5854 69.3314 34.8771 68.9649C35.1737 68.589 35.4516 68.3052 35.7107 68.1134C35.7744 68.0619 35.8255 68.0339 35.8641 68.0295C35.9027 68.0251 35.9626 68.0374 36.0438 68.0664L37.5903 68.6675C37.6189 68.6819 37.6229 68.7198 37.6023 68.7811C37.5868 68.833 37.5575 68.854 37.5144 68.8442C36.7671 68.6822 36.116 68.7479 35.5612 69.0413C35.0114 69.3253 34.5611 69.7969 34.2104 70.456C33.9498 70.9457 33.8476 71.4555 33.9038 71.9855C33.965 72.5061 34.1688 72.9971 34.5152 73.4586C34.857 73.9058 35.3184 74.2759 35.8993 74.569C36.4898 74.8669 37.1188 75.0469 37.7864 75.109C38.4495 75.1568 39.0702 75.046 39.6486 74.7764C40.2319 74.4974 40.6915 74.0424 41.0272 73.4115C41.6586 72.2251 41.4149 71.1167 40.2962 70.0864C40.2676 70.072 40.2658 70.0413 40.2909 69.9942C40.3009 69.9753 40.3204 69.9613 40.3495 69.9521C40.3741 69.9286 40.3911 69.9193 40.4006 69.9241L41.8171 70.8717C41.8883 70.9195 41.9332 70.9601 41.9517 70.9933C41.9703 71.0266 41.976 71.0952 41.969 71.1992C41.8403 72.0539 41.568 72.8721 41.1521 73.6537C40.676 74.5482 40.1042 75.1914 39.4366 75.5832C38.7691 75.975 38.0962 76.1611 37.4181 76.1415C36.74 76.1219 36.1248 75.9727 35.5724 75.6941C34.9248 75.3673 34.4246 74.9 34.0717 74.2919C33.7188 73.6839 33.5478 73.0063 33.5587 72.2594C33.5697 71.5124 33.7681 70.7764 34.1539 70.0513Z" fill="#F7F7F7"/>
<path d="M48.4364 60.3348C48.4614 60.3003 48.5003 60.3011 48.5531 60.3374C48.6058 60.3736 48.6197 60.409 48.5946 60.4436C48.4819 60.599 48.2916 60.8434 48.0236 61.1768C47.7556 61.5101 47.5652 61.7545 47.4525 61.91C47.3523 62.0481 47.2297 62.2355 47.0845 62.4722C46.9393 62.7088 46.8228 62.8875 46.7352 63.0085C46.7101 63.043 46.6713 63.0421 46.6185 63.0059C46.5658 62.9696 46.5519 62.9342 46.577 62.8997C46.7397 62.6752 46.8323 62.493 46.8547 62.3531C46.8746 62.1985 46.8098 62.0699 46.6603 61.9672C46.5285 61.8765 46.3063 61.8015 45.9938 61.742L43.4301 61.2997L42.1153 63.1133L43.1224 64.64C43.3563 65.0078 43.5831 65.2672 43.8029 65.4182C44.0314 65.5753 44.2504 65.6093 44.4598 65.5204C44.6692 65.4314 44.8897 65.2271 45.1213 64.9076C45.1526 64.8644 45.1947 64.8609 45.2474 64.8972C45.3001 64.9334 45.3109 64.9731 45.2796 65.0163C45.1857 65.1459 45.0485 65.3169 44.8682 65.5293C44.6753 65.759 44.5037 65.9775 44.3534 66.1848C44.1969 66.4007 44.021 66.6615 43.8257 66.9672C43.6555 67.2384 43.514 67.4517 43.4013 67.6071C43.37 67.6503 43.328 67.6538 43.2753 67.6175C43.2225 67.5813 43.2118 67.5416 43.2431 67.4984C43.4372 67.2307 43.5554 66.9949 43.5978 66.7911C43.6314 66.5813 43.5852 66.3361 43.4594 66.0555C43.3398 65.7663 43.1159 65.3666 42.7877 64.8564L39.5118 59.81C39.4892 59.7686 39.4904 59.7306 39.5154 59.696C39.5404 59.6615 39.5737 59.652 39.6151 59.6675L45.6894 60.7176C46.3445 60.8314 46.8288 60.8991 47.1425 60.9206C47.4624 60.9334 47.7164 60.901 47.9045 60.8232C48.0901 60.7308 48.2674 60.568 48.4364 60.3348ZM41.9437 62.8595L43.1176 61.2402L40.5896 60.8031L41.9437 62.8595Z" fill="#F7F7F7"/>
<path d="M47.7153 52.4069C47.9521 52.6222 48.2166 52.7546 48.5088 52.8042C48.8006 52.8389 49.0906 52.8216 49.3788 52.7522C49.667 52.6828 50.0303 52.5736 50.4687 52.4246C50.945 52.2668 51.3426 52.1527 51.6613 52.0823C51.9722 52.0046 52.289 51.9901 52.6119 52.0386C52.9347 52.0872 53.2342 52.237 53.5104 52.4882C53.8024 52.7537 53.9932 53.0786 54.0828 53.4627C54.1718 53.8319 54.1471 54.2274 54.0086 54.6491C53.87 55.0708 53.6125 55.4779 53.2359 55.8705C52.6969 56.4325 52.1121 56.7726 51.4815 56.891C51.4288 56.9151 51.3792 56.9205 51.3329 56.9072C51.294 56.8862 51.2353 56.8472 51.1569 56.7904L49.8742 55.8401C49.8353 55.8191 49.8303 55.7858 49.8593 55.7401C49.8957 55.6868 49.9371 55.6667 49.9834 55.68C50.5445 55.9885 51.1382 56.132 51.7645 56.1106C52.3903 56.0744 52.8915 55.86 53.268 55.4674C53.5265 55.1979 53.6691 54.8952 53.6958 54.5593C53.7221 54.2084 53.5655 53.8787 53.2262 53.5701C52.8632 53.24 52.4565 53.0864 52.0061 53.1092C51.5557 53.132 51.0017 53.2552 50.3441 53.4787C49.8751 53.6287 49.4889 53.7387 49.1855 53.8086C48.8815 53.8637 48.5757 53.8667 48.2682 53.8176C47.9606 53.7685 47.6727 53.622 47.4044 53.378C46.9546 52.969 46.7658 52.4803 46.8382 51.9119C46.9105 51.3436 47.1793 50.8169 47.6445 50.3319C48.0358 49.9239 48.4957 49.6216 49.0243 49.4248C49.1302 49.3914 49.2024 49.3778 49.2408 49.3839C49.2787 49.3752 49.329 49.3921 49.3917 49.4346L50.499 50.2903C50.5306 50.319 50.5282 50.36 50.4918 50.4134C50.4628 50.4591 50.4288 50.4714 50.3898 50.4504C50.1556 50.3095 49.8695 50.215 49.5314 50.167C49.1928 50.1041 48.8491 50.1158 48.5003 50.2022C48.1589 50.2809 47.8663 50.4472 47.6227 50.7012C47.3568 50.9784 47.2369 51.2729 47.2629 51.5847C47.2962 51.8888 47.447 52.1629 47.7153 52.4069Z" fill="#F7F7F7"/>
<path d="M65.4522 44.8229C65.4856 44.7964 65.5229 44.8077 65.5639 44.8568C65.6049 44.9059 65.6087 44.9437 65.5753 44.9702C65.4248 45.0894 65.1755 45.2733 64.8273 45.5219C64.4792 45.7705 64.2299 45.9543 64.0794 46.0736C63.9456 46.1795 63.7769 46.3268 63.5732 46.5154C63.3694 46.704 63.2091 46.8446 63.092 46.9373C63.0586 46.9638 63.0213 46.9525 62.9803 46.9034C62.9392 46.8543 62.9354 46.8165 62.9689 46.79C63.1863 46.6178 63.3246 46.4674 63.3839 46.3388C63.4447 46.1954 63.417 46.0541 63.3008 45.915C63.1982 45.7922 63.0044 45.66 62.7194 45.5185L60.3687 44.4015L58.6129 45.7924L59.1713 47.5333C59.2974 47.9504 59.4459 48.2612 59.6169 48.4658C59.7947 48.6786 59.9965 48.7705 60.2223 48.7413C60.448 48.7121 60.7155 48.575 61.0249 48.3299C61.0667 48.2968 61.1081 48.3048 61.1492 48.3539C61.1902 48.403 61.1898 48.4441 61.148 48.4773C61.0226 48.5766 60.8444 48.7042 60.6133 48.86C60.3655 49.0291 60.1413 49.1931 59.9406 49.3521C59.7316 49.5177 59.4917 49.7212 59.2211 49.9628C58.984 50.1779 58.7902 50.345 58.6397 50.4642C58.5979 50.4974 58.5564 50.4894 58.5154 50.4402C58.4744 50.3911 58.4747 50.35 58.5165 50.3169C58.7757 50.1116 58.9532 49.9166 59.049 49.7319C59.138 49.539 59.1597 49.2905 59.1141 48.9866C59.0769 48.676 58.969 48.2309 58.7905 47.6513L56.9956 41.9111C56.9849 41.8651 56.9964 41.8289 57.0298 41.8024C57.0632 41.7759 57.0978 41.7757 57.1335 41.8018L62.7024 44.4505C63.3028 44.7367 63.7512 44.9324 64.0476 45.0377C64.3524 45.1364 64.6058 45.1736 64.808 45.1495C65.0117 45.1106 65.2264 45.0017 65.4522 44.8229ZM58.516 45.5018L60.0837 44.26L57.7661 43.1576L58.516 45.5018Z" fill="#F7F7F7"/>
<path d="M81.5718 35.0614C81.7066 35.3634 81.8289 35.5722 81.9389 35.6878C82.0586 35.7993 82.2031 35.8482 82.3722 35.8346C82.5413 35.8209 82.7928 35.7435 83.1268 35.6022C83.1465 35.5939 83.1693 35.619 83.1954 35.6774C83.2215 35.7359 83.2247 35.7693 83.2051 35.7776C82.93 35.8939 82.7117 35.9805 82.5501 36.0372L81.6152 36.4152L80.7523 36.7975C80.5897 36.8779 80.3659 36.9784 80.081 37.0988C80.0613 37.1072 80.0385 37.0821 80.0124 37.0236C79.9863 36.9652 79.9831 36.9318 80.0027 36.9235C80.3368 36.7822 80.5666 36.6561 80.6922 36.5451C80.8179 36.434 80.8748 36.2999 80.8631 36.1428C80.8612 35.9815 80.7929 35.7498 80.6582 35.4478L78.6635 30.9766C78.5332 30.6843 78.4081 30.4825 78.2883 30.3711C78.1784 30.2554 78.0339 30.2065 77.855 30.2243C77.6816 30.2282 77.4328 30.2987 77.1086 30.4358C77.0889 30.4441 77.066 30.419 77.04 30.3606C77.0139 30.3021 77.0107 30.2688 77.0303 30.2604L77.7147 29.9884C78.0771 29.8583 78.3712 29.7454 78.5972 29.6499C78.8526 29.5419 79.1627 29.3992 79.5273 29.2218L80.1544 28.9392C80.1741 28.9309 80.1969 28.9559 80.223 29.0144C80.2491 29.0728 80.2523 29.1062 80.2326 29.1145C79.9183 29.2475 79.6955 29.3764 79.5644 29.5013C79.4333 29.6263 79.3709 29.7743 79.3771 29.9453C79.3888 30.1025 79.4599 30.3272 79.5902 30.6194L81.5718 35.0614Z" fill="#F7F7F7"/>
<path d="M97.8576 31.09C97.8782 31.0844 97.8973 31.1123 97.915 31.1738C97.9327 31.2353 97.9313 31.2689 97.9107 31.2745C97.6225 31.3531 97.3947 31.4097 97.2271 31.4444L96.3119 31.6775L95.2667 31.9792C95.0947 32.0372 94.8544 32.1083 94.5457 32.1925C94.5251 32.1981 94.5059 32.1702 94.4882 32.1087C94.4705 32.0472 94.472 32.0136 94.4926 32.008C94.8733 31.9041 95.1489 31.8013 95.3194 31.6995C95.4869 31.5875 95.5809 31.4513 95.6014 31.2909C95.6218 31.1306 95.5775 30.8994 95.4684 30.5975L93.7921 25.4663L92.9557 32.5102C92.9469 32.5568 92.9168 32.5871 92.8653 32.6012C92.8036 32.618 92.7565 32.6087 92.7241 32.5733L88.1033 27.5655L88.0548 27.5124L89.1548 31.8556C89.3008 32.4017 89.4834 32.7665 89.7027 32.9499C89.922 33.1333 90.2168 33.1745 90.5873 33.0734C90.6181 33.065 90.6424 33.0915 90.6601 33.153C90.6778 33.2145 90.6712 33.2495 90.6404 33.2579C90.4243 33.3169 90.2581 33.3566 90.142 33.3773L89.4584 33.5472L88.8145 33.7394C88.6837 33.7862 88.4999 33.8418 88.2632 33.9064C88.2427 33.912 88.2235 33.8841 88.2058 33.8226C88.1881 33.7611 88.1896 33.7275 88.2101 33.7219C88.5909 33.618 88.826 33.4323 88.9155 33.1646C89.0049 32.897 88.9818 32.4888 88.846 31.9399L87.6288 27.1312C87.2212 26.8333 86.8013 26.7433 86.3691 26.8612C86.3382 26.8697 86.3139 26.8431 86.2962 26.7816C86.2785 26.7201 86.2851 26.6852 86.316 26.6767L87.1694 26.4605L87.9059 26.243C88.0397 26.2065 88.161 26.2231 88.2699 26.2929C88.3787 26.3627 88.5708 26.548 88.846 26.8488L92.8199 31.1708L93.5426 25.1198C93.5513 24.9958 93.5865 24.8867 93.6482 24.7925C93.7201 24.6955 93.8024 24.6344 93.895 24.6091L94.7176 24.4013L95.7473 24.1038C95.7679 24.0981 95.7871 24.1261 95.8048 24.1876C95.8225 24.2491 95.821 24.2827 95.8004 24.2883C95.3374 24.4146 95.0338 24.5748 94.8899 24.7688C94.743 24.9526 94.7389 25.2467 94.8774 25.6511L96.4255 30.3364C96.5375 30.6486 96.6399 30.8694 96.7326 30.9989C96.8254 31.1283 96.9512 31.1991 97.11 31.211C97.2791 31.2201 97.5283 31.1798 97.8576 31.09Z" fill="#F7F7F7"/>
<path d="M103.257 29.1896C103.305 29.5276 103.377 29.7709 103.474 29.9194C103.568 30.0574 103.726 30.1439 103.946 30.1789C104.177 30.2126 104.526 30.1983 104.991 30.136C105.022 30.1318 105.043 30.1614 105.052 30.2247C105.061 30.2881 105.049 30.3219 105.018 30.3262C104.637 30.3771 104.345 30.4107 104.143 30.4271L102.967 30.5683L102.034 30.7093C101.856 30.7439 101.613 30.7818 101.307 30.8228C101.285 30.8256 101.27 30.7954 101.261 30.732C101.253 30.6686 101.259 30.6355 101.28 30.6327C101.629 30.586 101.879 30.5256 102.03 30.4516C102.181 30.3776 102.273 30.2631 102.304 30.1081C102.346 29.9412 102.344 29.6993 102.299 29.3825L101.615 24.5345C101.57 24.2177 101.505 23.9895 101.421 23.8502C101.347 23.7094 101.222 23.6239 101.046 23.5937C100.878 23.5516 100.625 23.5531 100.287 23.5984C100.266 23.6012 100.251 23.571 100.242 23.5076C100.233 23.4442 100.239 23.4111 100.26 23.4083L100.976 23.3286C101.381 23.296 101.694 23.2648 101.916 23.2351C102.096 23.2111 102.264 23.1831 102.421 23.1513C102.589 23.1181 102.73 23.0885 102.845 23.0624C103.168 22.9868 103.473 22.9299 103.758 22.8917C105.502 22.6583 106.466 23.1858 106.648 24.4744C106.719 24.9814 106.647 25.4268 106.432 25.8107C106.226 26.1827 105.934 26.48 105.556 26.7028C105.189 26.9241 104.794 27.0631 104.371 27.1197C104.086 27.1579 103.85 27.1679 103.664 27.1497C103.643 27.1525 103.629 27.1275 103.621 27.0747C103.609 26.9902 103.63 26.9444 103.683 26.9374C103.846 26.9478 104.012 26.9417 104.181 26.9191C104.646 26.8568 105.017 26.6566 105.292 26.3184C105.577 25.9683 105.679 25.508 105.598 24.9377C105.504 24.2723 105.259 23.7939 104.862 23.5026C104.475 23.1994 103.99 23.0867 103.409 23.1645C103.144 23.1998 102.947 23.2479 102.815 23.3085C102.694 23.3677 102.613 23.4808 102.572 23.6477C102.531 23.8146 102.536 24.0776 102.587 24.4367L103.257 29.1896Z" fill="#F7F7F7"/>
<path d="M117.795 27.621C117.795 27.589 117.822 27.573 117.875 27.573C117.939 27.573 117.971 27.589 117.971 27.621C117.897 28.389 117.859 29.0184 117.859 29.509C117.859 29.5944 117.843 29.6584 117.811 29.701C117.779 29.733 117.715 29.749 117.619 29.749L111.763 29.749C111.742 29.749 111.731 29.717 111.731 29.653C111.731 29.589 111.742 29.557 111.763 29.557C112.115 29.557 112.371 29.5304 112.531 29.477C112.691 29.4237 112.798 29.3224 112.851 29.173C112.915 29.013 112.947 28.773 112.947 28.453V23.557C112.947 23.237 112.915 23.0024 112.851 22.853C112.798 22.7037 112.691 22.6024 112.531 22.549C112.371 22.485 112.115 22.453 111.763 22.453C111.742 22.453 111.731 22.421 111.731 22.357C111.731 22.293 111.742 22.261 111.763 22.261L117.331 22.261C117.438 22.261 117.491 22.3037 117.491 22.389L117.507 23.381C117.518 23.5837 117.523 23.8397 117.523 24.149C117.523 24.181 117.491 24.197 117.427 24.197C117.363 24.197 117.331 24.181 117.331 24.149C117.289 23.6584 117.107 23.2584 116.787 22.949C116.478 22.629 116.094 22.469 115.635 22.469H115.187C114.814 22.469 114.542 22.501 114.371 22.565C114.201 22.6184 114.083 22.7197 114.019 22.869C113.955 23.0184 113.923 23.253 113.923 23.573V25.765C114.958 25.7544 115.662 25.7277 116.035 25.685C116.419 25.6317 116.638 25.605 116.691 25.605C116.745 25.605 116.771 25.717 116.771 25.941C116.771 26.1864 116.745 26.309 116.691 26.309C116.649 26.309 116.435 26.2824 116.051 26.229C115.667 26.165 114.958 26.1224 113.923 26.101V28.389C113.923 28.6984 113.955 28.933 114.019 29.093C114.083 29.2424 114.201 29.349 114.371 29.413C114.553 29.4664 114.825 29.493 115.187 29.493H115.955C116.382 29.493 116.766 29.3224 117.107 28.981C117.449 28.629 117.678 28.1757 117.795 27.621Z" fill="#F7F7F7"/>
<path d="M131.482 30.8657C131.503 30.8685 131.509 30.9016 131.5 30.965C131.491 31.0284 131.476 31.0586 131.455 31.0558L129.6 30.8075C129.409 30.782 129.116 30.4199 128.719 29.7211C128.333 29.0237 127.88 28.07 127.362 26.8598C127.155 26.8752 126.924 26.8659 126.671 26.8319C126.406 26.7966 126.207 26.7591 126.073 26.7196L125.753 28.9851C125.707 29.3126 125.699 29.5537 125.731 29.7087C125.763 29.8636 125.855 29.9781 126.006 30.0522C126.157 30.1262 126.413 30.1873 126.772 30.2354C126.793 30.2382 126.799 30.2713 126.79 30.3347C126.781 30.398 126.766 30.4283 126.745 30.4255C126.449 30.3859 126.223 30.3502 126.066 30.3184L125.069 30.1688L124.131 30.0594C123.95 30.046 123.706 30.0187 123.399 29.9777C123.378 29.9748 123.372 29.9417 123.381 29.8784C123.39 29.815 123.405 29.7847 123.426 29.7875C123.775 29.8342 124.032 29.8418 124.198 29.8102C124.375 29.78 124.505 29.6953 124.59 29.5559C124.675 29.4059 124.741 29.1725 124.785 28.8557L125.47 24.0077C125.514 23.6909 125.516 23.4543 125.473 23.2979C125.441 23.143 125.344 23.0278 125.182 22.9523C125.033 22.8677 124.784 22.8021 124.435 22.7554C124.414 22.7526 124.407 22.7195 124.416 22.6561C124.425 22.5927 124.44 22.5625 124.462 22.5653L125.189 22.6788C125.566 22.7508 125.872 22.8024 126.104 22.8335C126.294 22.859 126.47 22.8771 126.63 22.8877C126.8 22.8998 126.945 22.9084 127.062 22.9134C127.395 22.9255 127.709 22.9514 128.005 22.991C128.692 23.083 129.197 23.2851 129.519 23.5972C129.841 23.9094 129.967 24.3137 129.897 24.8101C129.837 25.2326 129.661 25.6071 129.367 25.9336C129.073 26.2602 128.704 26.5068 128.26 26.6734C128.715 27.7244 129.106 28.5408 129.434 29.1226C129.773 29.6953 130.096 30.1152 130.403 30.3823C130.721 30.6508 131.08 30.8119 131.482 30.8657ZM126.113 26.4344C126.299 26.4916 126.534 26.5393 126.82 26.5775C127.475 26.6652 127.95 26.5834 128.244 26.3322C128.55 26.0719 128.743 25.6618 128.822 25.102C128.986 23.9402 128.565 23.2921 127.561 23.1577C127.159 23.1039 126.883 23.153 126.732 23.305C126.592 23.4585 126.492 23.7464 126.433 24.1689L126.113 26.4344Z" fill="#F7F7F7"/>
<path d="M139.276 31.6096C139.185 31.9274 139.144 32.165 139.154 32.3226C139.175 32.4829 139.255 32.6098 139.394 32.7031C139.534 32.7965 139.779 32.8909 140.129 32.9864C140.149 32.992 140.151 33.0255 140.133 33.087C140.115 33.1485 140.096 33.1765 140.076 33.1709C139.787 33.0923 139.562 33.0254 139.401 32.9702L138.433 32.6895L137.518 32.4565C137.34 32.419 137.102 32.3595 136.803 32.2781C136.783 32.2725 136.781 32.2389 136.799 32.1774C136.816 32.1159 136.836 32.088 136.856 32.0936C137.206 32.1891 137.466 32.2322 137.635 32.2231C137.804 32.2139 137.935 32.1446 138.027 32.0151C138.131 31.8885 138.228 31.6663 138.319 31.3485L139.673 26.6434C139.762 26.3359 139.796 26.102 139.775 25.9416C139.765 25.7841 139.685 25.6572 139.535 25.561C139.398 25.4574 139.16 25.3593 138.821 25.2666C138.8 25.261 138.799 25.2275 138.816 25.166C138.834 25.1045 138.853 25.0765 138.874 25.0821L139.579 25.2912C139.944 25.4128 140.245 25.5059 140.481 25.5704C140.749 25.6434 141.081 25.723 141.478 25.8092L142.146 25.9749C142.167 25.9805 142.168 26.0141 142.151 26.0756C142.133 26.1371 142.114 26.165 142.093 26.1594C141.764 26.0696 141.508 26.0329 141.326 26.0495C141.143 26.0661 140.999 26.1429 140.893 26.2798C140.8 26.4092 140.71 26.6277 140.621 26.9353L139.276 31.6096Z" fill="#F7F7F7"/>
<path d="M153.974 38.1758C154.013 38.1924 154.02 38.2299 153.994 38.2884C153.968 38.3468 153.935 38.3677 153.896 38.3511C153.719 38.2763 153.438 38.1461 153.054 37.9604C152.67 37.7747 152.389 37.6445 152.212 37.5697C152.055 37.5032 151.844 37.4257 151.58 37.3372C151.316 37.2486 151.115 37.1753 150.978 37.1171C150.938 37.1005 150.932 37.063 150.958 37.0045C150.984 36.9461 151.017 36.9251 151.056 36.9418C151.311 37.0498 151.511 37.0995 151.655 37.0909C151.813 37.0767 151.929 36.9869 152.003 36.8213C152.068 36.6751 152.101 36.4456 152.1 36.1328L152.05 33.5756L149.987 32.7031L148.655 33.9986C148.333 34.3023 148.118 34.5759 148.009 34.8194C147.896 35.0727 147.904 35.2903 148.033 35.4722C148.162 35.6542 148.408 35.822 148.772 35.9757C148.821 35.9965 148.833 36.0361 148.806 36.0946C148.78 36.153 148.743 36.1719 148.694 36.1511C148.546 36.0888 148.349 35.9938 148.103 35.8663C147.836 35.7305 147.585 35.6127 147.349 35.513C147.104 35.4092 146.809 35.2963 146.467 35.1745C146.163 35.0694 145.923 34.9794 145.746 34.9046C145.697 34.8838 145.686 34.8442 145.712 34.7858C145.738 34.7273 145.776 34.7085 145.825 34.7293C146.129 34.8581 146.387 34.9209 146.599 34.9178C146.815 34.9049 147.051 34.8078 147.307 34.6266C147.573 34.4496 147.929 34.1486 148.375 33.7237L152.785 29.4924C152.822 29.4617 152.86 29.4547 152.9 29.4713C152.939 29.4879 152.955 29.5178 152.947 29.5609L153.064 35.6201C153.077 36.2736 153.102 36.7533 153.141 37.0592C153.189 37.3692 153.27 37.6061 153.384 37.77C153.512 37.9283 153.709 38.0636 153.974 38.1758ZM150.207 32.4837L152.049 33.2627L152 30.741L150.207 32.4837Z" fill="#F7F7F7"/>
<path d="M159.601 39.9111C159.437 40.1734 159.339 40.3815 159.305 40.5354C159.281 40.6946 159.321 40.8422 159.425 40.978C159.538 41.1192 159.737 41.2741 160.021 41.4425L160.93 41.9805C161.416 42.2686 161.895 42.3476 162.366 42.2175C162.846 42.0928 163.301 41.798 163.729 41.3331C163.741 41.315 163.765 41.3168 163.801 41.3385C163.829 41.3548 163.849 41.373 163.862 41.3929C163.884 41.4182 163.889 41.4399 163.878 41.458C163.553 41.8362 163.174 42.3735 162.739 43.0702C162.693 43.1425 162.641 43.186 162.582 43.2004C162.537 43.2112 162.478 43.1949 162.405 43.1514L157.022 39.9641C157.004 39.9532 157.011 39.9206 157.045 39.8663C157.079 39.8121 157.105 39.7903 157.124 39.8012C157.426 39.9806 157.661 40.0884 157.827 40.1247C157.993 40.1609 158.138 40.1293 158.263 40.0298C158.394 39.9213 158.544 39.7313 158.713 39.4599L161.307 35.3073C161.477 35.0359 161.573 34.8205 161.597 34.6613C161.631 34.5074 161.592 34.3671 161.483 34.2404C161.379 34.1046 161.18 33.9497 160.887 33.7758C160.868 33.765 160.876 33.7324 160.91 33.6781C160.944 33.6238 160.97 33.6021 160.988 33.613L161.6 33.9934C161.937 34.218 162.202 34.3874 162.395 34.5015C162.624 34.6373 162.919 34.7995 163.279 34.9879L163.866 35.3167C163.893 35.333 163.89 35.3683 163.856 35.4226C163.822 35.4769 163.792 35.4959 163.764 35.4796C163.461 35.3002 163.224 35.1969 163.053 35.1697C162.887 35.1334 162.734 35.1668 162.594 35.2699C162.469 35.3694 162.322 35.5549 162.152 35.8263L159.601 39.9111Z" fill="#F7F7F7"/>
<path d="M172.908 48.1667C172.929 48.1422 172.96 48.1464 173.002 48.1796C173.052 48.2193 173.067 48.2515 173.046 48.276C172.495 48.819 172.062 49.2788 171.748 49.6553C171.693 49.7208 171.64 49.7599 171.587 49.7728C171.542 49.7775 171.481 49.75 171.406 49.6904L166.816 46.0542C166.799 46.041 166.811 46.0098 166.852 45.9607C166.893 45.9116 166.922 45.8937 166.939 45.9069C167.215 46.1255 167.432 46.264 167.592 46.3224C167.752 46.3808 167.9 46.3693 168.038 46.2878C168.19 46.2048 168.369 46.0405 168.575 45.7949L171.714 42.0378C171.919 41.7922 172.044 41.5923 172.09 41.4379C172.144 41.2902 172.125 41.1462 172.034 41.006C171.95 40.8575 171.77 40.674 171.494 40.4554C171.477 40.4422 171.489 40.411 171.53 40.3619C171.571 40.3128 171.6 40.2948 171.617 40.3081L175.981 43.7654C176.065 43.8317 176.079 43.8975 176.025 43.963L175.401 44.7342C175.28 44.8963 175.12 45.0961 174.921 45.3335C174.901 45.358 174.865 45.3504 174.815 45.3107C174.765 45.271 174.75 45.2388 174.771 45.2143C175.052 44.8112 175.166 44.3917 175.114 43.9556C175.076 43.518 174.878 43.1568 174.519 42.872L174.167 42.5938C173.875 42.362 173.641 42.2176 173.466 42.1608C173.298 42.0957 173.141 42.1006 172.995 42.1755C172.849 42.2503 172.674 42.4105 172.469 42.6561L171.063 44.3382C171.881 44.9725 172.45 45.3892 172.77 45.5882C173.105 45.7857 173.294 45.9011 173.336 45.9342C173.377 45.9673 173.326 46.0698 173.183 46.2417C173.025 46.43 172.926 46.5075 172.884 46.4744C172.851 46.4479 172.701 46.295 172.434 46.0156C172.174 45.7281 171.645 45.2549 170.848 44.596L169.381 46.3518C169.182 46.5892 169.057 46.7891 169.005 46.9517C168.959 47.106 168.983 47.2607 169.075 47.4158C169.183 47.5693 169.379 47.7587 169.664 47.9839L170.266 48.4607C170.6 48.7257 171.011 48.8332 171.497 48.7832C171.99 48.725 172.461 48.5195 172.908 48.1667Z" fill="#F7F7F7"/>
<path d="M192.291 60.9756C192.529 61.3037 192.748 61.6776 192.947 62.0973C193.152 62.5256 193.282 62.8957 193.337 63.2074C193.354 63.286 193.356 63.3429 193.342 63.3783C193.328 63.4137 193.289 63.4599 193.225 63.5169L191.961 64.5799C191.934 64.598 191.898 64.5842 191.852 64.5384C191.812 64.5013 191.806 64.4663 191.835 64.4335C192.329 63.8612 192.571 63.2681 192.56 62.6541C192.556 62.0489 192.335 61.444 191.896 60.8395C191.571 60.3904 191.154 60.0691 190.644 59.8755C190.142 59.6906 189.6 59.6426 189.019 59.7313C188.453 59.8227 187.902 60.0527 187.365 60.4212C186.82 60.7958 186.365 61.2576 185.999 61.8067C185.648 62.3583 185.462 62.9459 185.44 63.5693C185.424 64.2013 185.625 64.8066 186.045 65.3852C186.834 66.4734 187.957 66.7689 189.414 66.272C189.441 66.2539 189.469 66.2664 189.501 66.3096C189.513 66.3268 189.517 66.3502 189.512 66.3795C189.522 66.4115 189.522 66.4305 189.514 66.4365L187.994 67.2287C187.917 67.2684 187.86 67.2887 187.821 67.2896C187.782 67.2904 187.717 67.2641 187.625 67.2105C186.906 66.7087 186.286 66.0993 185.766 65.3826C185.172 64.5621 184.85 63.7737 184.802 63.0173C184.755 62.261 184.897 61.594 185.229 61.0164C185.561 60.4389 185.982 59.9749 186.492 59.6245C187.089 59.2136 187.747 58.9945 188.465 58.9671C189.182 58.9396 189.879 59.1013 190.555 59.452C191.23 59.8027 191.809 60.3106 192.291 60.9756Z" fill="#F7F7F7"/>
<path d="M193.013 78.7443C193.033 78.782 193.014 78.8152 192.957 78.8441C192.9 78.8729 192.862 78.8685 192.842 78.8308C192.751 78.6613 192.616 78.3834 192.434 77.9972C192.253 77.6109 192.117 77.333 192.027 77.1635C191.947 77.0129 191.832 76.8199 191.682 76.5847C191.533 76.3495 191.423 76.166 191.353 76.0341C191.333 75.9965 191.352 75.9632 191.409 75.9344C191.466 75.9056 191.505 75.91 191.525 75.9477C191.655 76.1925 191.779 76.357 191.896 76.4412C192.028 76.5299 192.175 76.5335 192.337 76.4518C192.479 76.3797 192.649 76.2223 192.846 75.9796L194.421 73.9669L193.368 71.9895L191.517 72.1533C191.075 72.1852 190.735 72.2612 190.497 72.3813C190.249 72.5063 190.118 72.6799 190.103 72.9022C190.089 73.1246 190.174 73.41 190.36 73.7584C190.385 73.8055 190.369 73.8434 190.311 73.8722C190.254 73.9011 190.213 73.8919 190.188 73.8449C190.113 73.7036 190.02 73.5058 189.909 73.2513C189.787 72.9781 189.667 72.7284 189.546 72.5024C189.421 72.267 189.264 71.9941 189.074 71.6835C188.905 71.4106 188.775 71.1895 188.685 71.02C188.66 70.9729 188.676 70.9349 188.733 70.9061C188.79 70.8773 188.831 70.8864 188.856 70.9335C189.012 71.2254 189.172 71.4369 189.339 71.5679C189.515 71.6942 189.759 71.7679 190.073 71.789C190.391 71.8195 190.857 71.8111 191.472 71.7636L197.569 71.2678C197.617 71.2674 197.651 71.2861 197.671 71.3238C197.691 71.3614 197.685 71.3946 197.652 71.4232L193.919 76.1909C193.516 76.7048 193.233 77.0924 193.07 77.3537C192.912 77.6245 192.826 77.8593 192.811 78.058C192.81 78.2613 192.878 78.4901 193.013 78.7443ZM193.678 71.9586L194.618 73.7242L196.171 71.7401L193.678 71.9586Z" fill="#F7F7F7"/>
<path d="M200.632 81.5853C200.33 81.6899 200.09 81.8575 199.913 82.088C199.75 82.3251 199.634 82.585 199.567 82.8678C199.5 83.1506 199.435 83.5172 199.373 83.9678C199.301 84.4553 199.225 84.854 199.145 85.1638C199.075 85.4701 198.945 85.7521 198.756 86.0096C198.566 86.2672 198.295 86.457 197.942 86.5791C197.569 86.7081 197.188 86.7215 196.798 86.6192C196.423 86.5235 196.075 86.3166 195.754 85.9986C195.434 85.6807 195.18 85.2662 194.994 84.7551C194.727 84.0237 194.682 83.3564 194.859 82.7534C194.861 82.6963 194.879 82.6508 194.912 82.6168C194.948 82.5928 195.01 82.5601 195.097 82.5187L196.539 81.8504C196.576 81.8264 196.608 81.8377 196.637 81.8843C196.669 81.941 196.668 81.9863 196.635 82.0203C196.102 82.3629 195.704 82.8111 195.44 83.3649C195.191 83.9253 195.159 84.461 195.346 84.972C195.474 85.3227 195.684 85.5884 195.977 85.7692C196.284 85.9564 196.654 85.9751 197.087 85.8251C197.551 85.6646 197.874 85.3835 198.057 84.9818C198.24 84.58 198.378 84.0412 198.472 83.3654C198.547 82.8879 198.622 82.501 198.695 82.2047C198.782 81.9149 198.918 81.648 199.101 81.404C199.285 81.16 199.548 80.9786 199.89 80.86C200.465 80.6612 200.994 80.7264 201.477 81.0557C201.961 81.3849 202.318 81.8652 202.548 82.4965C202.742 83.0275 202.809 83.5687 202.749 84.1198C202.732 84.2274 202.711 84.2965 202.689 84.327C202.679 84.364 202.641 84.3998 202.574 84.4342L201.297 84.9946C201.257 85.0086 201.221 84.9873 201.189 84.9306C201.16 84.884 201.165 84.8487 201.201 84.8247C201.435 84.6874 201.65 84.4833 201.846 84.2122C202.056 83.9477 202.201 83.6437 202.28 83.3004C202.362 82.9671 202.343 82.6351 202.223 82.3044C202.091 81.9437 201.878 81.7015 201.583 81.5778C201.292 81.4642 200.975 81.4667 200.632 81.5853Z" fill="#F7F7F7"/>
<path d="M199.589 100.343C199.598 100.385 199.571 100.412 199.508 100.425C199.446 100.438 199.41 100.423 199.401 100.381C199.361 100.194 199.307 99.889 199.239 99.4675C199.171 99.046 199.116 98.7413 199.076 98.5536C199.041 98.3866 198.984 98.1697 198.905 97.9027C198.826 97.6357 198.771 97.4292 198.74 97.2831C198.731 97.2414 198.758 97.2142 198.821 97.2015C198.883 97.1888 198.919 97.2033 198.928 97.2451C198.986 97.5163 199.06 97.7081 199.149 97.8206C199.251 97.9414 199.391 97.9839 199.569 97.9479C199.726 97.9162 199.932 97.8092 200.187 97.6269L202.25 96.0996L201.782 93.9089L199.961 93.5756C199.528 93.489 199.181 93.4722 198.919 93.5251C198.647 93.5801 198.474 93.7131 198.399 93.9242C198.324 94.1352 198.328 94.4337 198.41 94.8197C198.421 94.8718 198.396 94.9043 198.333 94.917C198.27 94.9297 198.233 94.9099 198.222 94.8578C198.189 94.7013 198.154 94.4853 198.117 94.2099C198.075 93.9135 198.028 93.6402 197.974 93.3898C197.919 93.129 197.843 92.8234 197.746 92.473C197.658 92.1643 197.594 91.916 197.554 91.7282C197.543 91.6761 197.569 91.6437 197.632 91.631C197.694 91.6183 197.731 91.638 197.742 91.6902C197.811 92.0135 197.908 92.2607 198.032 92.4315C198.166 92.6002 198.38 92.7364 198.675 92.84C198.972 92.954 199.422 93.0697 200.025 93.1871L206.01 94.3266C206.057 94.339 206.084 94.3661 206.093 94.4078C206.102 94.4496 206.087 94.4799 206.047 94.4988L201.159 98.1159C200.631 98.5056 200.253 98.8051 200.025 99.0145C199.8 99.2342 199.652 99.4382 199.583 99.6262C199.527 99.8226 199.529 100.062 199.589 100.343ZM202.088 93.9613L202.505 95.9173L204.54 94.412L202.088 93.9613Z" fill="#F7F7F7"/>
<path d="M201.239 118.583C200.909 118.561 200.668 118.571 200.515 118.615C200.362 118.668 200.253 118.773 200.188 118.93C200.124 119.086 200.079 119.345 200.054 119.706C200.052 119.728 200.019 119.736 199.956 119.732C199.892 119.728 199.861 119.715 199.862 119.694C199.883 119.396 199.905 119.162 199.927 118.992L200.014 117.988L200.064 117.045C200.066 116.864 200.078 116.618 200.1 116.31C200.101 116.289 200.134 116.28 200.198 116.284C200.262 116.289 200.293 116.301 200.291 116.323C200.266 116.684 200.274 116.947 200.316 117.11C200.358 117.273 200.452 117.386 200.597 117.449C200.742 117.523 200.979 117.571 201.309 117.593L206.194 117.918C206.513 117.94 206.75 117.923 206.903 117.869C207.056 117.826 207.165 117.721 207.23 117.554C207.305 117.399 207.355 117.146 207.38 116.795C207.381 116.773 207.414 116.765 207.478 116.769C207.541 116.773 207.573 116.786 207.571 116.807L207.504 117.541C207.455 117.922 207.423 118.235 207.406 118.48C207.386 118.757 207.373 119.098 207.366 119.504L207.333 120.191C207.332 120.212 207.299 120.221 207.235 120.217C207.172 120.212 207.14 120.2 207.142 120.178C207.166 119.838 207.152 119.58 207.1 119.406C207.048 119.231 206.944 119.107 206.789 119.032C206.644 118.969 206.412 118.927 206.092 118.906L201.239 118.583Z" fill="#F7F7F7"/>
<path d="M197.423 134.549C197.418 134.57 197.385 134.574 197.322 134.562C197.259 134.549 197.23 134.532 197.235 134.511C197.297 134.219 197.351 133.991 197.397 133.826L197.61 132.906L197.821 131.839C197.849 131.659 197.896 131.413 197.963 131.1C197.967 131.079 198.001 131.075 198.063 131.088C198.126 131.101 198.155 131.117 198.151 131.138C198.068 131.524 198.033 131.816 198.046 132.015C198.068 132.215 198.146 132.362 198.279 132.454C198.412 132.546 198.638 132.613 198.956 132.656L204.281 133.537L198.41 129.542C198.372 129.513 198.359 129.472 198.37 129.42C198.384 129.357 198.414 129.32 198.46 129.307L205.026 127.518L205.095 127.499L200.734 126.47C200.182 126.348 199.774 126.341 199.511 126.451C199.248 126.561 199.076 126.804 198.996 127.179C198.989 127.211 198.954 127.22 198.892 127.207C198.829 127.195 198.801 127.173 198.808 127.141C198.854 126.922 198.895 126.756 198.93 126.644L199.093 125.958L199.217 125.298C199.236 125.16 199.271 124.972 199.322 124.732C199.326 124.711 199.36 124.707 199.423 124.719C199.485 124.732 199.514 124.749 199.51 124.77C199.428 125.156 199.485 125.45 199.681 125.653C199.878 125.856 200.251 126.024 200.801 126.157L205.629 127.297C206.08 127.073 206.353 126.742 206.446 126.304C206.453 126.272 206.488 126.263 206.55 126.276C206.613 126.288 206.641 126.31 206.634 126.342L206.435 127.199L206.29 127.953C206.262 128.089 206.191 128.189 206.079 128.253C205.967 128.318 205.715 128.403 205.321 128.508L199.661 130.04L204.703 133.476C204.809 133.541 204.89 133.623 204.945 133.721C204.998 133.83 205.015 133.931 204.995 134.025L204.802 134.851L204.594 135.902C204.59 135.923 204.556 135.927 204.493 135.915C204.43 135.902 204.401 135.885 204.406 135.864C204.506 135.395 204.503 135.052 204.397 134.834C204.301 134.619 204.042 134.479 203.619 134.416L198.749 133.626C198.42 133.581 198.177 133.57 198.02 133.593C197.862 133.615 197.742 133.694 197.658 133.83C197.573 133.976 197.494 134.216 197.423 134.549Z" fill="#F7F7F7"/>
<path d="M196.668 139.911C196.346 139.799 196.096 139.752 195.919 139.77C195.752 139.791 195.602 139.892 195.469 140.071C195.331 140.261 195.182 140.576 195.021 141.017C195.01 141.047 194.975 141.051 194.914 141.03C194.854 141.009 194.829 140.984 194.84 140.954C194.972 140.593 195.077 140.319 195.157 140.132L195.578 139.025L195.886 138.133C195.938 137.96 196.018 137.727 196.124 137.437C196.131 137.417 196.165 137.417 196.225 137.438C196.286 137.459 196.312 137.48 196.305 137.5C196.184 137.83 196.122 138.079 196.117 138.247C196.113 138.415 196.172 138.548 196.295 138.647C196.424 138.76 196.64 138.868 196.942 138.973L201.569 140.574C201.872 140.679 202.104 140.725 202.267 140.714C202.427 140.713 202.561 140.641 202.67 140.498C202.785 140.368 202.901 140.143 203.018 139.823C203.026 139.803 203.06 139.803 203.12 139.824C203.181 139.845 203.207 139.865 203.2 139.886L202.938 140.557C202.779 140.93 202.661 141.223 202.584 141.433C202.522 141.603 202.468 141.765 202.424 141.919C202.375 142.083 202.336 142.222 202.306 142.335C202.223 142.657 202.132 142.952 202.033 143.223C201.429 144.876 200.513 145.49 199.283 145.064C198.799 144.897 198.437 144.631 198.195 144.265C197.961 143.913 197.832 143.518 197.81 143.082C197.784 142.655 197.844 142.242 197.99 141.841C198.089 141.57 198.19 141.357 198.292 141.2C198.299 141.18 198.328 141.179 198.379 141.197C198.459 141.224 198.49 141.263 198.472 141.314C198.387 141.453 198.315 141.604 198.257 141.764C198.096 142.205 198.102 142.624 198.274 143.023C198.453 143.434 198.815 143.734 199.359 143.923C199.994 144.143 200.533 144.143 200.977 143.924C201.426 143.718 201.752 143.34 201.953 142.789C202.044 142.538 202.094 142.341 202.101 142.197C202.104 142.063 202.042 141.939 201.912 141.827C201.783 141.714 201.547 141.599 201.204 141.48L196.668 139.911Z" fill="#F7F7F7"/>
<path d="M191.086 153.723C191.115 153.738 191.117 153.768 191.091 153.816C191.061 153.872 191.032 153.893 191.004 153.879C190.353 153.467 189.809 153.15 189.371 152.929C189.294 152.891 189.245 152.848 189.222 152.8C189.208 152.758 189.224 152.694 189.269 152.609L192.02 147.44C192.03 147.421 192.064 147.426 192.121 147.455C192.178 147.484 192.201 147.507 192.191 147.526C192.026 147.837 191.93 148.075 191.902 148.24C191.875 148.406 191.915 148.545 192.023 148.66C192.136 148.788 192.335 148.925 192.621 149.069L196.992 151.274C197.278 151.418 197.502 151.496 197.666 151.506C197.824 151.527 197.965 151.478 198.087 151.361C198.22 151.249 198.369 151.037 198.534 150.726C198.544 150.707 198.578 150.712 198.635 150.741C198.692 150.77 198.715 150.794 198.705 150.813L196.09 155.728C196.04 155.822 195.976 155.85 195.9 155.812L195.007 155.379C194.821 155.297 194.59 155.186 194.314 155.047C194.285 155.033 194.286 154.997 194.316 154.941C194.346 154.884 194.375 154.863 194.404 154.878C194.862 155.061 195.304 155.081 195.731 154.938C196.162 154.809 196.485 154.542 196.701 154.137L196.911 153.742C197.087 153.412 197.186 153.158 197.209 152.978C197.241 152.803 197.206 152.654 197.103 152.53C196.999 152.407 196.805 152.273 196.519 152.129L194.562 151.141C194.086 152.059 193.779 152.693 193.641 153.042C193.509 153.405 193.43 153.61 193.405 153.657C193.38 153.704 193.267 153.677 193.067 153.576C192.848 153.466 192.751 153.387 192.776 153.34C192.796 153.302 192.92 153.126 193.148 152.811C193.386 152.501 193.757 151.894 194.262 150.99L192.22 149.959C191.943 149.82 191.719 149.742 191.546 149.727C191.383 149.716 191.232 149.772 191.095 149.893C190.962 150.029 190.81 150.258 190.64 150.578L190.279 151.256C190.079 151.632 190.051 152.048 190.195 152.503C190.349 152.963 190.646 153.37 191.086 153.723Z" fill="#F7F7F7"/>
<path d="M182.859 164.018C182.846 164.035 182.813 164.026 182.761 163.989C182.708 163.953 182.688 163.926 182.7 163.909L183.799 162.393C183.912 162.238 184.376 162.143 185.191 162.108C186 162.082 187.071 162.113 188.404 162.201C188.488 162.012 188.605 161.815 188.755 161.607C188.911 161.391 189.039 161.233 189.138 161.133L187.252 159.837C186.98 159.65 186.767 159.536 186.612 159.494C186.458 159.453 186.312 159.482 186.174 159.581C186.036 159.68 185.861 159.877 185.648 160.17C185.635 160.188 185.603 160.178 185.55 160.142C185.497 160.106 185.477 160.079 185.489 160.062C185.665 159.82 185.804 159.637 185.906 159.514L186.511 158.707L187.052 157.933C187.15 157.781 187.289 157.579 187.471 157.328C187.484 157.311 187.516 157.321 187.569 157.357C187.622 157.393 187.642 157.42 187.629 157.437C187.423 157.722 187.294 157.945 187.244 158.104C187.188 158.273 187.203 158.425 187.288 158.561C187.383 158.704 187.562 158.866 187.825 159.047L191.86 161.82C192.124 162.001 192.336 162.108 192.497 162.141C192.651 162.183 192.8 162.149 192.945 162.041C193.091 161.948 193.268 161.759 193.474 161.474C193.487 161.457 193.52 161.466 193.572 161.502C193.625 161.539 193.645 161.565 193.633 161.583L193.187 162.17C192.944 162.468 192.754 162.713 192.616 162.903C192.504 163.058 192.405 163.204 192.32 163.339C192.228 163.483 192.153 163.606 192.092 163.707C191.925 163.993 191.753 164.257 191.578 164.499C191.171 165.06 190.751 165.412 190.319 165.554C189.886 165.697 189.463 165.626 189.05 165.342C188.698 165.101 188.445 164.778 188.29 164.374C188.135 163.97 188.088 163.536 188.147 163.072C186.988 163 186.069 162.977 185.392 163.003C184.717 163.044 184.187 163.139 183.802 163.288C183.411 163.446 183.096 163.69 182.859 164.018ZM189.375 161.296C189.236 161.434 189.082 161.619 188.913 161.852C188.525 162.387 188.375 162.84 188.462 163.211C188.551 163.596 188.829 163.948 189.295 164.269C190.262 164.933 191.043 164.855 191.638 164.035C191.875 163.707 191.962 163.443 191.896 163.242C191.824 163.051 191.613 162.834 191.261 162.592L189.375 161.296Z" fill="#F7F7F7"/>
<path d="M178.469 170.302C178.225 170.079 178.029 169.937 177.881 169.875C177.726 169.821 177.574 169.833 177.424 169.913C177.273 169.993 177.073 170.163 176.822 170.425C176.807 170.44 176.776 170.427 176.729 170.383C176.681 170.34 176.665 170.311 176.68 170.296C176.886 170.08 177.053 169.914 177.179 169.798L177.888 169.082L178.53 168.39C178.648 168.252 178.814 168.071 179.028 167.848C179.043 167.832 179.074 167.846 179.121 167.889C179.168 167.932 179.185 167.962 179.17 167.977C178.919 168.239 178.758 168.445 178.686 168.597C178.615 168.748 178.616 168.893 178.69 169.032C178.756 169.179 178.911 169.363 179.156 169.586L182.778 172.88C183.015 173.095 183.211 173.23 183.365 173.284C183.513 173.346 183.665 173.333 183.823 173.246C183.981 173.174 184.182 173.01 184.426 172.756C184.44 172.741 184.471 172.755 184.519 172.798C184.566 172.841 184.582 172.87 184.568 172.886L184.046 173.406C183.765 173.669 183.539 173.889 183.369 174.066C183.177 174.266 182.949 174.519 182.684 174.826L182.22 175.334C182.205 175.349 182.174 175.335 182.126 175.292C182.079 175.249 182.063 175.22 182.078 175.204C182.314 174.958 182.467 174.752 182.538 174.586C182.609 174.419 182.607 174.259 182.533 174.105C182.46 173.966 182.305 173.789 182.068 173.574L178.469 170.302Z" fill="#F7F7F7"/>
<path d="M165.571 179.911C165.538 179.937 165.501 179.926 165.46 179.877C165.419 179.828 165.415 179.79 165.448 179.764C165.599 179.644 165.848 179.461 166.196 179.212C166.544 178.963 166.794 178.78 166.944 178.66C167.078 178.554 167.247 178.407 167.45 178.219C167.654 178.03 167.814 177.889 167.931 177.797C167.965 177.77 168.002 177.781 168.043 177.83C168.084 177.88 168.088 177.917 168.055 177.944C167.837 178.116 167.699 178.266 167.64 178.395C167.579 178.538 167.606 178.68 167.723 178.819C167.825 178.942 168.019 179.074 168.304 179.215L170.655 180.332L172.411 178.942L171.852 177.201C171.726 176.784 171.577 176.473 171.407 176.268C171.229 176.055 171.027 175.963 170.801 175.993C170.575 176.022 170.308 176.159 169.999 176.404C169.957 176.437 169.915 176.429 169.874 176.38C169.833 176.331 169.834 176.29 169.875 176.257C170.001 176.157 170.179 176.03 170.41 175.874C170.658 175.705 170.882 175.541 171.083 175.382C171.292 175.216 171.532 175.013 171.802 174.771C172.039 174.556 172.233 174.389 172.384 174.27C172.426 174.237 172.467 174.245 172.508 174.294C172.549 174.343 172.549 174.384 172.507 174.417C172.248 174.622 172.07 174.817 171.974 175.002C171.885 175.195 171.864 175.443 171.909 175.747C171.947 176.058 172.054 176.503 172.233 177.083L174.028 182.823C174.038 182.869 174.027 182.905 173.994 182.932C173.96 182.958 173.926 182.958 173.89 182.932L168.321 180.283C167.721 179.997 167.272 179.801 166.976 179.696C166.671 179.598 166.418 179.56 166.215 179.584C166.012 179.623 165.797 179.732 165.571 179.911ZM172.507 179.232L170.94 180.474L173.257 181.576L172.507 179.232Z" fill="#F7F7F7"/>
<path d="M161.299 183.821C161.136 183.559 160.991 183.378 160.866 183.278C160.732 183.184 160.579 183.151 160.407 183.178C160.227 183.211 159.994 183.311 159.71 183.48L158.801 184.018C158.314 184.306 158.022 184.683 157.924 185.15C157.817 185.623 157.877 186.151 158.103 186.736C158.115 186.754 158.102 186.774 158.065 186.796C158.038 186.812 158.012 186.821 157.988 186.823C157.955 186.83 157.932 186.825 157.921 186.807C157.726 186.352 157.41 185.777 156.975 185.08C156.93 185.008 156.914 184.943 156.928 184.885C156.939 184.841 156.981 184.798 157.054 184.755L162.438 181.567C162.456 181.556 162.482 181.578 162.516 181.632C162.55 181.687 162.558 181.719 162.539 181.73C162.236 181.909 162.03 182.062 161.921 182.189C161.811 182.316 161.773 182.456 161.806 182.61C161.845 182.773 161.95 182.99 162.119 183.261L164.713 187.414C164.882 187.686 165.034 187.868 165.168 187.962C165.293 188.062 165.439 188.093 165.605 188.057C165.776 188.03 166.009 187.929 166.302 187.755C166.321 187.745 166.347 187.766 166.381 187.821C166.415 187.875 166.423 187.907 166.404 187.918L165.776 188.272C165.416 188.46 165.14 188.611 164.947 188.725C164.717 188.861 164.434 189.041 164.096 189.266L163.527 189.622C163.499 189.638 163.468 189.619 163.435 189.565C163.401 189.511 163.397 189.475 163.425 189.459C163.728 189.28 163.931 189.122 164.035 188.986C164.144 188.86 164.184 188.712 164.155 188.544C164.121 188.39 164.02 188.177 163.851 187.906L161.299 183.821Z" fill="#F7F7F7"/>
<path d="M147.593 191.359C147.606 191.388 147.588 191.413 147.539 191.434C147.48 191.459 147.444 191.457 147.431 191.427C147.187 190.697 146.965 190.108 146.765 189.66C146.73 189.582 146.719 189.517 146.731 189.465C146.747 189.424 146.8 189.384 146.888 189.347L152.282 187.066C152.301 187.058 152.324 187.083 152.35 187.141C152.376 187.199 152.38 187.233 152.36 187.241C152.036 187.378 151.811 187.502 151.685 187.613C151.56 187.724 151.503 187.859 151.514 188.016C151.521 188.187 151.589 188.418 151.719 188.711L153.714 193.182C153.844 193.474 153.969 193.676 154.089 193.787C154.199 193.903 154.339 193.954 154.508 193.94C154.681 193.936 154.93 193.866 155.254 193.729C155.274 193.721 155.297 193.746 155.323 193.804C155.349 193.863 155.352 193.896 155.332 193.904L150.204 196.073C150.106 196.115 150.039 196.096 150.005 196.019L149.586 195.119C149.493 194.938 149.384 194.706 149.258 194.424C149.245 194.394 149.268 194.367 149.327 194.342C149.386 194.318 149.422 194.32 149.435 194.349C149.674 194.78 150.004 195.075 150.425 195.233C150.84 195.405 151.259 195.401 151.681 195.223L152.094 195.048C152.438 194.903 152.675 194.767 152.807 194.642C152.942 194.527 153.009 194.389 153.007 194.228C153.005 194.066 152.939 193.84 152.809 193.547L151.915 191.546C150.967 191.958 150.329 192.257 150.003 192.441C149.671 192.64 149.48 192.749 149.431 192.77C149.382 192.791 149.312 192.699 149.221 192.494C149.121 192.27 149.095 192.148 149.144 192.127C149.184 192.11 149.391 192.052 149.767 191.951C150.146 191.86 150.817 191.622 151.779 191.239L150.846 189.149C150.72 188.867 150.595 188.665 150.471 188.544C150.351 188.432 150.2 188.381 150.017 188.389C149.828 188.41 149.567 188.492 149.233 188.633L148.525 188.932C148.132 189.099 147.848 189.404 147.673 189.849C147.502 190.303 147.475 190.807 147.593 191.359Z" fill="#F7F7F7"/>
</svg>
