<svg width="17" height="18" viewBox="0 0 17 18" fill="none" xmlns="http://www.w3.org/2000/svg">
<path d="M0.845975 5.18396C1.55448 7.94828 2.99292 10.4714 5.01078 12.4892C7.02863 14.5071 9.55172 15.9455 12.316 16.654C14.443 17.1954 16.25 15.3665 16.25 13.1711V12.1777C16.25 11.6293 15.804 11.1892 15.2586 11.1346C14.354 11.0454 13.4661 10.8318 12.62 10.4998L11.11 12.0098C8.65138 10.8312 6.66877 8.84862 5.49023 6.38997L7.00023 4.87997C6.66787 4.03391 6.45392 3.14602 6.36444 2.24144C6.3108 1.69505 5.87071 1.25 5.32234 1.25H4.32892C2.13345 1.25 0.30456 3.05704 0.845975 5.18396Z" fill="#006B63" stroke="#006B63" stroke-width="0.8" stroke-linecap="round" stroke-linejoin="round"/>
</svg>
